<mxfile host="app.diagrams.net" modified="2023-12-13T16:35:07.031Z" agent="Mozilla/5.0 (Windows NT 10.0; Win64; x64) AppleWebKit/537.36 (KHTML, like Gecko) Chrome/120.0.0.0 Safari/537.36" etag="rwNgwPzBVy_pwGw_2lHA" version="22.1.8" type="device">
  <diagram name="Page-1" id="cvAnw2V2JLXpIPIUCAN2">
    <mxGraphModel dx="1050" dy="557" grid="1" gridSize="10" guides="1" tooltips="1" connect="1" arrows="1" fold="1" page="1" pageScale="1" pageWidth="850" pageHeight="1100" math="0" shadow="0">
      <root>
        <mxCell id="0" />
        <mxCell id="1" parent="0" />
        <mxCell id="kkA_7oOyGXkyZyyaTgiD-2" value="" style="sketch=0;points=[[0,0,0],[0.25,0,0],[0.5,0,0],[0.75,0,0],[1,0,0],[0,1,0],[0.25,1,0],[0.5,1,0],[0.75,1,0],[1,1,0],[0,0.25,0],[0,0.5,0],[0,0.75,0],[1,0.25,0],[1,0.5,0],[1,0.75,0]];outlineConnect=0;fontColor=#232F3E;fillColor=#E7157B;strokeColor=#ffffff;dashed=0;verticalLabelPosition=bottom;verticalAlign=top;align=center;html=1;fontSize=12;fontStyle=0;aspect=fixed;shape=mxgraph.aws4.resourceIcon;resIcon=mxgraph.aws4.api_gateway;" vertex="1" parent="1">
          <mxGeometry x="180" y="190.25" width="68" height="68" as="geometry" />
        </mxCell>
        <mxCell id="kkA_7oOyGXkyZyyaTgiD-4" style="edgeStyle=orthogonalEdgeStyle;rounded=0;orthogonalLoop=1;jettySize=auto;html=1;entryX=0;entryY=0.5;entryDx=0;entryDy=0;entryPerimeter=0;" edge="1" parent="1" source="kkA_7oOyGXkyZyyaTgiD-3" target="kkA_7oOyGXkyZyyaTgiD-2">
          <mxGeometry relative="1" as="geometry">
            <mxPoint x="170" y="224" as="targetPoint" />
          </mxGeometry>
        </mxCell>
        <mxCell id="kkA_7oOyGXkyZyyaTgiD-3" value="" style="image;aspect=fixed;perimeter=ellipsePerimeter;html=1;align=center;shadow=0;dashed=0;spacingTop=3;image=img/lib/active_directory/user_accounts.svg;" vertex="1" parent="1">
          <mxGeometry x="10" y="200" width="50" height="48.5" as="geometry" />
        </mxCell>
        <mxCell id="kkA_7oOyGXkyZyyaTgiD-21" style="edgeStyle=orthogonalEdgeStyle;rounded=0;orthogonalLoop=1;jettySize=auto;html=1;" edge="1" parent="1" source="kkA_7oOyGXkyZyyaTgiD-6" target="kkA_7oOyGXkyZyyaTgiD-20">
          <mxGeometry relative="1" as="geometry">
            <mxPoint x="610" y="50" as="targetPoint" />
            <Array as="points">
              <mxPoint x="425" y="60" />
            </Array>
          </mxGeometry>
        </mxCell>
        <mxCell id="kkA_7oOyGXkyZyyaTgiD-22" value="Put_Object" style="edgeLabel;html=1;align=center;verticalAlign=middle;resizable=0;points=[];" vertex="1" connectable="0" parent="kkA_7oOyGXkyZyyaTgiD-21">
          <mxGeometry x="0.1035" y="1" relative="1" as="geometry">
            <mxPoint as="offset" />
          </mxGeometry>
        </mxCell>
        <mxCell id="kkA_7oOyGXkyZyyaTgiD-23" style="edgeStyle=orthogonalEdgeStyle;rounded=0;orthogonalLoop=1;jettySize=auto;html=1;exitX=0.75;exitY=0;exitDx=0;exitDy=0;exitPerimeter=0;" edge="1" parent="1">
          <mxGeometry relative="1" as="geometry">
            <mxPoint x="637.81" y="80" as="targetPoint" />
            <mxPoint x="459.9975" y="200" as="sourcePoint" />
            <Array as="points">
              <mxPoint x="450" y="200" />
              <mxPoint x="450" y="80" />
            </Array>
          </mxGeometry>
        </mxCell>
        <mxCell id="kkA_7oOyGXkyZyyaTgiD-24" value="Get Presigned Url" style="edgeLabel;html=1;align=center;verticalAlign=middle;resizable=0;points=[];" vertex="1" connectable="0" parent="kkA_7oOyGXkyZyyaTgiD-23">
          <mxGeometry x="0.3643" y="-1" relative="1" as="geometry">
            <mxPoint as="offset" />
          </mxGeometry>
        </mxCell>
        <mxCell id="kkA_7oOyGXkyZyyaTgiD-25" style="edgeStyle=orthogonalEdgeStyle;rounded=0;orthogonalLoop=1;jettySize=auto;html=1;" edge="1" parent="1">
          <mxGeometry relative="1" as="geometry">
            <mxPoint x="248" y="240" as="targetPoint" />
            <mxPoint x="389" y="240" as="sourcePoint" />
            <Array as="points">
              <mxPoint x="319" y="240" />
              <mxPoint x="319" y="241" />
            </Array>
          </mxGeometry>
        </mxCell>
        <mxCell id="kkA_7oOyGXkyZyyaTgiD-6" value="" style="sketch=0;points=[[0,0,0],[0.25,0,0],[0.5,0,0],[0.75,0,0],[1,0,0],[0,1,0],[0.25,1,0],[0.5,1,0],[0.75,1,0],[1,1,0],[0,0.25,0],[0,0.5,0],[0,0.75,0],[1,0.25,0],[1,0.5,0],[1,0.75,0]];outlineConnect=0;fontColor=#232F3E;fillColor=#ED7100;strokeColor=#ffffff;dashed=0;verticalLabelPosition=bottom;verticalAlign=top;align=center;html=1;fontSize=12;fontStyle=0;aspect=fixed;shape=mxgraph.aws4.resourceIcon;resIcon=mxgraph.aws4.lambda;" vertex="1" parent="1">
          <mxGeometry x="391" y="190" width="68.25" height="68.25" as="geometry" />
        </mxCell>
        <mxCell id="kkA_7oOyGXkyZyyaTgiD-7" style="edgeStyle=orthogonalEdgeStyle;rounded=0;orthogonalLoop=1;jettySize=auto;html=1;entryX=0;entryY=0.5;entryDx=0;entryDy=0;entryPerimeter=0;" edge="1" parent="1">
          <mxGeometry relative="1" as="geometry">
            <mxPoint x="248" y="210.19999999999996" as="sourcePoint" />
            <mxPoint x="391" y="210.025" as="targetPoint" />
          </mxGeometry>
        </mxCell>
        <mxCell id="kkA_7oOyGXkyZyyaTgiD-8" value="Text" style="edgeLabel;html=1;align=center;verticalAlign=middle;resizable=0;points=[];" vertex="1" connectable="0" parent="kkA_7oOyGXkyZyyaTgiD-7">
          <mxGeometry x="-0.1229" y="1" relative="1" as="geometry">
            <mxPoint as="offset" />
          </mxGeometry>
        </mxCell>
        <mxCell id="kkA_7oOyGXkyZyyaTgiD-11" style="edgeStyle=orthogonalEdgeStyle;rounded=0;orthogonalLoop=1;jettySize=auto;html=1;" edge="1" parent="1" target="kkA_7oOyGXkyZyyaTgiD-6">
          <mxGeometry relative="1" as="geometry">
            <mxPoint x="620" y="225.60000000000002" as="sourcePoint" />
            <mxPoint x="459.25" y="224.425" as="targetPoint" />
            <Array as="points">
              <mxPoint x="540" y="226" />
              <mxPoint x="540" y="224" />
            </Array>
          </mxGeometry>
        </mxCell>
        <mxCell id="kkA_7oOyGXkyZyyaTgiD-19" value="mp3 file" style="edgeLabel;html=1;align=center;verticalAlign=middle;resizable=0;points=[];" vertex="1" connectable="0" parent="kkA_7oOyGXkyZyyaTgiD-11">
          <mxGeometry x="0.0447" y="2" relative="1" as="geometry">
            <mxPoint as="offset" />
          </mxGeometry>
        </mxCell>
        <mxCell id="kkA_7oOyGXkyZyyaTgiD-9" value="" style="sketch=0;points=[[0,0,0],[0.25,0,0],[0.5,0,0],[0.75,0,0],[1,0,0],[0,1,0],[0.25,1,0],[0.5,1,0],[0.75,1,0],[1,1,0],[0,0.25,0],[0,0.5,0],[0,0.75,0],[1,0.25,0],[1,0.5,0],[1,0.75,0]];outlineConnect=0;fontColor=#232F3E;fillColor=#01A88D;strokeColor=#ffffff;dashed=0;verticalLabelPosition=bottom;verticalAlign=top;align=center;html=1;fontSize=12;fontStyle=0;aspect=fixed;shape=mxgraph.aws4.resourceIcon;resIcon=mxgraph.aws4.polly;" vertex="1" parent="1">
          <mxGeometry x="620" y="190" width="70" height="70" as="geometry" />
        </mxCell>
        <mxCell id="kkA_7oOyGXkyZyyaTgiD-17" style="edgeStyle=orthogonalEdgeStyle;rounded=0;orthogonalLoop=1;jettySize=auto;html=1;entryX=0;entryY=0.25;entryDx=0;entryDy=0;entryPerimeter=0;" edge="1" parent="1" source="kkA_7oOyGXkyZyyaTgiD-6" target="kkA_7oOyGXkyZyyaTgiD-9">
          <mxGeometry relative="1" as="geometry">
            <Array as="points">
              <mxPoint x="540" y="208" />
            </Array>
          </mxGeometry>
        </mxCell>
        <mxCell id="kkA_7oOyGXkyZyyaTgiD-18" value="synthesize_speech" style="edgeLabel;html=1;align=center;verticalAlign=middle;resizable=0;points=[];" vertex="1" connectable="0" parent="kkA_7oOyGXkyZyyaTgiD-17">
          <mxGeometry x="-0.2218" y="3" relative="1" as="geometry">
            <mxPoint y="1" as="offset" />
          </mxGeometry>
        </mxCell>
        <mxCell id="kkA_7oOyGXkyZyyaTgiD-20" value="" style="sketch=0;outlineConnect=0;fontColor=#232F3E;gradientColor=none;fillColor=#7AA116;strokeColor=none;dashed=0;verticalLabelPosition=bottom;verticalAlign=top;align=center;html=1;fontSize=12;fontStyle=0;aspect=fixed;pointerEvents=1;shape=mxgraph.aws4.bucket;" vertex="1" parent="1">
          <mxGeometry x="632.31" y="30" width="57.69" height="60" as="geometry" />
        </mxCell>
        <mxCell id="kkA_7oOyGXkyZyyaTgiD-31" style="edgeStyle=orthogonalEdgeStyle;rounded=0;orthogonalLoop=1;jettySize=auto;html=1;" edge="1" parent="1" source="kkA_7oOyGXkyZyyaTgiD-30">
          <mxGeometry relative="1" as="geometry">
            <mxPoint x="330" y="240" as="targetPoint" />
            <Array as="points">
              <mxPoint x="330" y="250" />
              <mxPoint x="331" y="250" />
            </Array>
          </mxGeometry>
        </mxCell>
        <mxCell id="kkA_7oOyGXkyZyyaTgiD-30" value="&lt;br&gt;&lt;b&gt;&lt;font style=&quot;font-size: 14px;&quot;&gt;Response to API Gateway / User&lt;/font&gt;&lt;/b&gt;&lt;br&gt;{&lt;br style=&quot;border-color: var(--border-color);&quot;&gt;&lt;br style=&quot;border-color: var(--border-color);&quot;&gt;&quot;message&quot;: &quot;Text converted to speech and saved on s3 bucket ....&lt;span style=&quot;border-color: var(--border-color); background-color: initial;&quot;&gt;&quot;&lt;/span&gt;&lt;br style=&quot;border-color: var(--border-color);&quot;&gt;&quot;presigned-url&quot;: &quot;.......................&quot;&lt;br style=&quot;border-color: var(--border-color);&quot;&gt;}" style="text;html=1;strokeColor=none;fillColor=none;align=left;verticalAlign=middle;whiteSpace=wrap;rounded=0;spacingLeft=5;" vertex="1" parent="1">
          <mxGeometry x="140" y="280" width="370" height="80" as="geometry" />
        </mxCell>
      </root>
    </mxGraphModel>
  </diagram>
</mxfile>
